# xmcd CD database file
#
# Track frame offsets:
#	150
#	17897
#	29505
#	43100
#	62270
#	79310
#	95410
#	104365
#	123667
#	137452
#	151835
#
# Disc length: 2229 seconds
#
# Revision: 0
# Processed by: cddbd v1.5.2PL0 Copyright (c) Steve Scherf et al.
# Submitted via: CDex 1.70beta2
#
DISCID=8908b30b
DTITLE=Orla - The Water is Wide
DYEAR=1900
DGENRE=New Age
TTITLE0=She Moved Thro' the Fair
TTITLE1=Aililiu Na Gamhna
TTITLE2=Cad E Sin Don Te Sin
TTITLE3=Carrickfergus
TTITLE4=Ciuil A Run
TTITLE5=Down by the Sally Gardens 
TTITLE6=Na Buachailli Alainn
TTITLE7=Raglan Road
TTITLE8=Gartan Mothers Lullaby
TTITLE9=An Mhaighdean Mhara
TTITLE10=The Water is Wide
EXTD=
EXTT0=
EXTT1=
EXTT2=
EXTT3=
EXTT4=
EXTT5=
EXTT6=
EXTT7=
EXTT8=
EXTT9=
EXTT10=
PLAYORDER=
